<?xml version="1.0" standalone="no"?><!DOCTYPE svg PUBLIC "-//W3C//DTD SVG 1.1//EN" "http://www.w3.org/Graphics/SVG/1.1/DTD/svg11.dtd"><svg t="1755670048842" class="icon" viewBox="0 0 1098 1024" version="1.1" xmlns="http://www.w3.org/2000/svg" p-id="6259" xmlns:xlink="http://www.w3.org/1999/xlink" width="214.453125" height="200"><path d="M592.250622 520.605042m-454.199933 0a454.199933 454.199933 0 1 0 908.399866 0 454.199933 454.199933 0 1 0-908.399866 0Z" fill="#428DCF" p-id="6260"></path><path d="M592.250622 1007.073882c-268.240672 0-486.46884-218.232471-486.46884-486.46884S324.00995 34.136202 592.250622 34.136202 1078.719462 252.36437 1078.719462 520.605042s-218.228168 486.46884-486.46884 486.46884z m0-908.399865c-232.654521 0-421.931025 189.276504-421.931025 421.931025 0 232.654521 189.276504 421.931025 421.931025 421.931025 232.654521 0 421.931025-189.276504 421.931025-421.931025 0-232.654521-189.276504-421.931025-421.931025-421.931025z" fill="#5A5A7D" p-id="6261"></path><path d="M604.349311 548.825277m-385.342387 0a385.342387 385.342387 0 1 0 770.684773 0 385.342387 385.342387 0 1 0-770.684773 0Z" fill="#5CAEE6" p-id="6262"></path><path d="M923.914756 440.500706c-2.220101-18.655731-26.813311-24.390992-34.897748-26.275496-4.706958-1.097143-9.994756-1.656471-15.730016-1.656471-26.525042 0-65.183193 11.836235-114.941849 35.181715-0.503395 0.098958-1.002487 0.215126-1.523093 0.339899-2.125445 0.499092-5.679328 1.338084-11.354353 1.338084-5.201748 0-10.902588-0.727126-16.943327-2.159866l-156.887126-25.281613a36.40363 36.40363 0 0 0-4.50474-0.262454c-6.045042 0-12.76558 1.178891-17.537075 3.084908l-6.337614 2.534185c-6.264471 2.504067-10.046387 7.417546-10.119529 13.139899-0.073143 5.619092 3.454924 10.549782 9.448336 13.243159l108.845176 54.461311c-27.144605 19.869042-85.762151 54.913076-144.43563 83.464605l-1.157378 0.563631-0.98958 0.817479c-0.266756 0.219429-0.886319 0.731429-2.684773 0.731428-2.383597 0-5.10279-0.890622-6.896941-1.48437-0.98958-0.322689-1.884504-0.623866-2.843967-0.813176l-29.420638-8.075832-1.596236-0.309781c-7.942454-0.925042-18.027563 2.624538-23.58642 8.325378a18.242689 18.242689 0 0 0-5.201748 14.194017c0.42595 5.231866 3.166655 10.072202 7.546622 13.307697l26.258286 19.262387c2.843966 2.267429 7.383126 4.780101 14.42205 8.673882 13.570151 7.503597 20.101378 9.168672 23.835967 9.573109 1.617748 0.309782 4.69405 0.757244 9.31926 0.757244 11.995429 0 32.922891-2.899899 64.537815-16.680874 46.992134-20.488605 294.283832-149.103866 304.65721-154.503529 10.218487-5.150118 43.322084-23.595025 40.719059-45.490555z" fill="#FFFFFF" p-id="6263"></path><path d="M187.860975 781.195832c-69.778286 0-119.764975-23.599328-141.006521-66.680471-25.427899-51.539899-3.424807-118.586084 60.368672-183.932773a32.268908 32.268908 0 1 1 46.178958 45.081815c-41.596773 42.612168-60.699966 85.908437-48.670118 110.303731 9.736605 19.748571 42.057143 31.262118 86.175194 30.66837 53.945008-0.658286 118.302118-18.109311 181.204974-49.13479 15.979563-7.895126 35.328-1.316571 43.214521 14.667294a32.268908 32.268908 0 0 1-14.667294 43.214521c-71.370218 35.198924-145.580101 55.007731-208.960537 55.786488-1.282151 0.01721-2.568605 0.025815-3.837849 0.025815z" fill="#5A5A7D" p-id="6264"></path></svg>