<?xml version="1.0" standalone="no"?><!DOCTYPE svg PUBLIC "-//W3C//DTD SVG 1.1//EN" "http://www.w3.org/Graphics/SVG/1.1/DTD/svg11.dtd"><svg t="1755669926526" class="icon" viewBox="0 0 1024 1024" version="1.1" xmlns="http://www.w3.org/2000/svg" p-id="5096" xmlns:xlink="http://www.w3.org/1999/xlink" width="200" height="200"><path d="M354.203279 1024H352.52459c-10.072131 0-18.465574-5.036066-23.501639-13.429508L201.442623 849.416393 13.429508 694.977049c-8.393443-5.036066-13.429508-13.429508-13.429508-23.501639 0-10.072131 3.357377-18.465574 10.072131-25.180328l80.577049-83.934426c8.393443-8.393443 20.144262-11.75082 31.895082-10.072131l124.222951 28.537705 130.937705-127.580328L55.396721 278.662295c-8.393443-5.036066-15.108197-13.429508-16.786885-23.501639-1.678689-10.072131 1.678689-20.144262 8.393443-28.537705l107.436065-115.829508c8.393443-8.393443 20.144262-11.75082 31.895082-10.072132l438.137705 100.721312c70.504918-77.219672 236.695082-250.12459 350.845902-157.796721 23.501639 20.144262 36.931148 45.32459 36.931147 75.540983 1.678689 68.82623-60.432787 159.47541-194.727869 283.698361L923.278689 856.131148c3.357377 13.429508-1.678689 25.180328-11.75082 33.57377l-110.793443 88.970492c-8.393443 6.714754-18.465574 8.393443-26.859016 6.714754-10.072131-1.678689-18.465574-8.393443-23.50164-16.786885L577.468852 658.045902l-125.901639 125.901639 28.537705 107.436066c3.357377 11.75082 0 25.180328-8.393443 33.57377l-94.006557 90.64918c-6.714754 5.036066-15.108197 8.393443-23.501639 8.393443zM82.255738 666.439344l162.832787 134.295082 5.036065 5.036066 107.436066 134.295082 52.039344-50.360656-28.537705-107.436066c-3.357377-11.75082 0-23.501639 8.393443-31.895082l171.226229-171.226229c6.714754-6.714754 18.465574-11.75082 28.537705-10.072131 10.072131 1.678689 20.144262 8.393443 25.180328 16.786885l177.940984 315.593443 63.790164-50.360656-105.757378-453.245902c-3.357377-11.75082 1.678689-23.501639 10.072132-31.895082 162.832787-149.403279 186.334426-218.229508 184.655737-245.088524 0-10.072131-3.357377-18.465574-13.429508-25.180328C886.347541 58.754098 788.983607 117.508197 661.403279 260.196721c-8.393443 8.393443-20.144262 13.429508-31.895082 10.072131l-438.137705-100.721311-65.468853 68.826229 323.986886 177.940984c10.072131 5.036066 15.108197 15.108197 16.786885 25.180328 1.678689 10.072131-1.678689 21.822951-10.072131 28.537705L278.662295 642.937705c-8.393443 8.393443-20.144262 11.75082-30.216393 8.393443l-124.222951-28.537705-41.967213 43.645901z" p-id="5097"></path></svg>